<svg width="131" height="48" viewBox="0 0 131 48" fill="none" xmlns="http://www.w3.org/2000/svg">
<path d="M128.739 33.9542C128.418 35.8161 128.311 36.0644 127.803 36.0644C127.135 36.0644 126.894 37.8332 127.562 38.0194C127.99 38.1435 127.99 38.2987 127.509 40.7503C126.867 44.1328 126.867 44.1328 127.776 44.1328C128.499 44.1328 128.579 44.0087 128.846 42.5812C129.007 41.7123 129.274 40.3158 129.435 39.4779C129.649 38.3297 129.836 37.9263 130.21 37.9263C130.478 37.9263 130.745 37.616 130.852 37.2126C131.093 36.1885 131.066 36.0644 130.585 36.0644C130.237 36.0644 130.183 35.8161 130.344 34.5127L130.531 32.9611H129.729C129.033 32.9611 128.9 33.0853 128.739 33.9542Z" fill="#590A73"/>
<path d="M112.96 36.033C112.024 36.4984 111.436 37.5225 111.061 39.3845C110.553 41.836 110.58 43.3566 111.142 43.8531C111.436 44.1635 112.292 44.2876 113.843 44.2876C116.009 44.2876 116.116 44.2566 116.838 43.2946C117.667 42.2084 118.256 39.6327 118.122 37.7087C118.068 36.8398 117.881 36.4364 117.373 36.1571C116.624 35.7226 113.789 35.6606 112.96 36.033ZM116.276 37.8949C116.597 38.1432 116.597 38.4845 116.33 40.0051C116.17 40.9982 115.822 41.9912 115.581 42.1774C114.966 42.7049 112.96 42.6739 112.586 42.1464C112.185 41.5878 112.719 38.5466 113.308 37.988C113.789 37.5536 115.715 37.4915 116.276 37.8949Z" fill="#590A73"/>
<path d="M103.359 36.5916C103.279 36.902 103.038 38.2674 102.797 39.6328C102.556 40.9982 102.129 43.3257 101.834 44.8152C101.567 46.3048 101.326 47.6082 101.326 47.7323C101.326 47.8254 101.663 47.7943 102.182 47.7944C102.618 47.7944 102.618 47.7944 102.965 47.7944C103.085 47.5595 103.163 46.7949 103.332 45.9945L103.599 44.2877L105.793 44.1325C108.574 43.9463 109.136 43.3877 109.724 40.3776C110.259 37.6778 110.259 37.4295 109.617 36.6847C109.162 36.1572 108.734 36.0641 106.301 36.0641C103.867 36.0641 103.492 36.1261 103.359 36.5916ZM108.146 38.2674C108.44 38.7639 108.012 41.2775 107.584 41.8051C107.157 42.3016 104.001 42.4878 104.001 42.0223C104.001 41.8982 104.108 41.3086 104.241 40.7189C104.375 40.1293 104.562 39.2604 104.643 38.7639C104.803 37.9571 104.883 37.926 106.408 37.926C107.263 37.926 108.066 38.0812 108.146 38.2674Z" fill="#590A73"/>
<path d="M119.78 36.1885C119.78 36.2506 119.485 37.9884 119.111 40.0986C118.737 42.2088 118.442 43.9466 118.442 44.0087C118.442 44.0707 118.79 44.1328 119.245 44.1328C119.86 44.1328 120.074 43.9777 120.181 43.4191C120.395 42.364 121.117 38.2056 121.117 38.0504C121.117 37.9884 121.839 37.9263 122.722 37.9263C123.925 37.9263 124.38 38.0504 124.487 38.3918C124.594 38.6711 124.995 38.8573 125.556 38.8573C126.359 38.8573 126.466 38.7642 126.466 38.0815C126.466 37.647 126.225 37.0264 125.931 36.685C125.476 36.1575 125.048 36.0644 122.588 36.0644C121.037 36.0644 119.78 36.1264 119.78 36.1885Z" fill="#590A73"/>
<path d="M96.0608 44.2675C96.4918 44.2828 96.8964 44.2675 97.2746 44.2675H99.1677C99.5635 44.2675 99.8092 44.0243 100.117 43.8799C100.425 43.7355 100.388 43.5682 100.608 43.2642C100.836 42.9525 100.858 42.5306 101.095 41.9985C101.131 41.8693 101.131 41.6983 101.149 41.5766C101.175 41.455 101.193 41.3448 101.201 41.246C101.21 41.1395 101.214 41.0407 101.214 40.9495C101.214 40.577 101.14 40.2996 100.99 40.1171C100.841 39.9347 100.725 39.7269 100.513 39.613C100.301 39.499 100.044 39.3102 99.7416 39.2329H98.1684H96.6545C96.3291 39.1949 96.3841 39.1935 96.2521 39.1479C96.129 39.0947 96.0674 38.9921 96.0674 38.8401C96.0674 38.726 96.0696 38.7778 96.0872 38.6638C96.1136 38.5498 96.1488 38.4358 96.1928 38.3217C96.2367 38.2077 96.2983 38.1051 96.3775 38.0139C96.4566 37.9227 96.549 37.8504 96.6545 37.7972C96.76 37.7516 96.8832 37.7136 97.0239 37.6832C97.1646 37.6528 97.279 37.6314 98.1057 37.6314H98.8181H99.7416C100.067 37.639 100.384 37.5972 100.691 37.62C101.008 37.6428 102.023 37.601 102.269 37.6314L102.705 36.1377H100.955H99.8339H98.673C98.1541 36.1377 97.0459 36.1605 96.6149 36.1377C96.1928 36.1833 95.819 36.3695 95.4936 36.514C95.2635 36.7987 95.2385 36.8232 95.0186 37.112C94.7988 37.3933 94.6272 37.7696 94.5041 38.2409C94.4601 38.4233 94.425 38.602 94.3986 38.7768C94.3722 38.944 94.359 39.0961 94.359 39.2329C94.359 39.6206 94.4557 39.9284 94.6492 40.1565C94.8427 40.3769 95.2033 40.6546 95.731 40.7154L97.4065 40.7673C98.2706 40.7673 98.9009 40.9029 99.0592 40.9029C99.2175 40.9029 99.4359 41.0421 99.4975 41.1029C99.5591 41.1637 99.5899 41.2511 99.5899 41.3651C99.5899 41.4336 99.5811 41.521 99.5635 41.6274C99.5547 41.7262 99.5327 41.8326 99.4975 41.9467C99.4711 42.0531 99.4315 42.1557 99.3788 42.2545C99.326 42.3533 99.2644 42.4445 99.1941 42.5282C99.1325 42.6042 99.0578 42.665 98.9698 42.7106C98.8819 42.7562 98.8819 42.7321 98.7323 42.7625C98.5828 42.7853 97.8286 42.7473 97.6176 42.7625C97.4153 42.7701 97.169 42.7625 96.8788 42.7625C96.6501 42.7625 96.3731 42.7777 96.0476 42.7625C95.731 42.7473 95.4012 42.7625 95.0582 42.7625H93.3942L92.9834 44.2675C93.3088 44.2979 94.4162 44.2447 94.8207 44.2675C95.2253 44.2979 95.6387 44.2523 96.0608 44.2675Z" fill="#590A73"/>
<path d="M14.7261 28.0075C13.488 28.0075 12.1634 28.0606 10.7526 28.0075C9.3705 27.9545 8.01727 28.1134 6.69279 28.0075C5.36831 27.928 1.74308 28.1134 0.677734 28.0075L1.97929 23.4766C3.01584 23.4766 6.30411 23.4766 7.42704 23.4766C8.54997 23.4766 9.62972 23.4236 10.6663 23.4766C11.7316 23.5297 12.6386 23.4766 13.3872 23.4766C14.3374 23.4766 15.1436 23.5031 15.8059 23.4766C16.4969 23.4236 18.9659 23.5561 19.4554 23.4766C19.9449 23.3707 20.3768 23.239 20.7511 23.08C21.039 22.921 21.2838 22.709 21.4853 22.4442C21.7157 22.1527 21.9172 21.8348 22.09 21.4905C22.2627 21.1461 22.3923 20.7885 22.4787 20.4175C22.5938 20.0202 22.6658 19.6493 22.6946 19.3049C22.7522 18.934 22.781 18.6293 22.781 18.3909C22.781 17.9935 22.6802 17.6889 22.4787 17.4769C22.2771 17.265 21.9172 16.1266 21.3989 16.1266C20.8807 16.1266 18.0733 16.1266 15.2444 16.1266L9.75929 15.9458C8.0317 15.7339 6.85117 14.7662 6.21773 13.9979C5.58428 13.2032 5.26755 12.1302 5.26755 10.7792C5.26755 10.3023 5.31074 9.77244 5.39712 9.18962C5.4835 8.5803 5.59867 7.95774 5.74264 7.32193C6.14575 5.67942 6.70722 4.36806 7.42704 3.38786C8.14686 2.38116 8.22866 2.29584 8.98187 1.30351C10.0472 0.800165 11.2709 0.15114 12.653 -0.0078125C14.0639 0.071663 17.6918 -0.0078125 19.3906 -0.0078125C20.6287 -0.0078125 21.8956 -0.0078125 23.1913 -0.0078125C24.487 -0.0078125 25.7108 -0.0078125 26.8624 -0.0078125C28.0141 -0.0078125 31.8407 -0.0078125 32.5894 -0.0078125L31.1641 4.76073C30.358 4.65477 27.0352 4.80047 25.9986 4.72099C24.9908 4.64152 23.9543 4.78722 22.889 4.76073C21.8236 4.76073 20.8159 4.76073 19.8657 4.76073C18.9731 4.76073 18.1957 4.76073 17.5334 4.76073C14.8269 4.76073 14.2798 4.69451 13.8191 4.80047C13.3584 4.90643 12.9553 5.0389 12.6098 5.19785C12.2643 5.38329 11.962 5.63497 11.7028 5.95287C11.4437 6.27078 11.2421 6.62842 11.0982 7.0258C10.9542 7.42318 10.839 7.82056 10.7527 8.21794C10.6951 8.61532 10.6663 9.01271 10.6663 9.41009C10.6663 9.93994 10.8678 10.2976 11.2709 10.483C11.7028 10.642 12.4515 11.1061 13.5168 11.2385H18.6672H23.8176C24.8068 11.5081 24.72 11.7066 25.4144 12.1037C26.1088 12.5008 26.4872 13.225 26.9768 13.8608C27.4663 14.4966 27.711 15.4635 27.711 16.7616C27.711 17.0795 27.6965 17.4239 27.6678 17.7948C27.6391 18.1392 27.5814 18.5234 27.495 18.9472C27.4374 19.3711 27.4365 19.9672 27.3214 20.4175C26.5424 22.2719 26.4729 23.7422 25.7243 24.8285C25.0045 25.8881 25.1257 26.8959 24.1179 27.3992C23.1102 27.9025 22.2195 28.0075 20.9238 28.0075C19.6281 28.0075 16.3097 28.0075 14.7261 28.0075ZM45.285 28.0075C42.2617 28.0075 39.9008 27.8353 38.2019 27.4909C36.5032 27.12 35.2939 26.4842 34.574 25.5835C33.8829 24.6562 33.5374 23.3846 33.5374 21.7686C33.5374 20.7885 33.6527 19.6493 33.8829 18.3512C34.1421 17.0531 34.4589 15.5562 34.8331 13.8608C35.3514 11.5824 35.8265 9.63527 36.2584 8.01926C36.7192 6.40325 37.2662 5.07864 37.8996 4.04545C38.5332 2.98578 39.3538 2.16451 40.3614 1.58169C41.3979 0.998867 42.7226 0.601486 44.3348 0.389549C45.9473 0.151121 47.9485 0.0319065 50.3382 0.0319065C53.3615 0.0319065 55.7082 0.217352 57.3781 0.58824C59.077 0.932638 60.2719 1.56845 60.9629 2.49567C61.6829 3.39639 62.0427 4.66801 62.0427 6.31053C62.0427 7.31723 61.9275 8.45638 61.6971 9.728C61.4957 10.9996 61.1933 12.4832 60.7902 14.1787C60.2432 16.4835 59.7249 18.4439 59.2353 20.0599C58.746 21.6759 58.1845 23.0005 57.5509 24.0337C56.9175 25.0669 56.0969 25.875 55.0891 26.4577C54.0815 27.0405 52.7858 27.4512 51.202 27.6896C49.6472 27.9016 47.6749 28.0075 45.285 28.0075ZM45.5873 23.5569C46.883 23.5569 47.9485 23.5171 48.7834 23.4376C49.6185 23.3582 50.3095 23.1728 50.8565 22.8813C51.4324 22.5898 51.9075 22.0999 52.2818 21.411C52.6562 20.7221 53.016 19.7817 53.3615 18.5896C53.707 17.3975 54.0957 15.8742 54.5276 14.0197C54.9308 12.4302 55.2187 11.0791 55.3914 9.96643C55.5931 8.85376 55.6938 7.93979 55.6938 7.2245C55.6938 6.35026 55.5067 5.72771 55.1323 5.35681C54.758 4.95943 54.1534 4.721 53.3183 4.64153C52.4835 4.53557 51.3748 4.48257 49.9927 4.48257C48.697 4.48257 47.6173 4.52231 46.7535 4.60179C45.9186 4.68126 45.2131 4.8667 44.6372 5.15812C44.0902 5.44954 43.6296 5.93963 43.2551 6.62843C42.8809 7.31723 42.5209 8.25769 42.1754 9.44983C41.8298 10.642 41.4556 12.1653 41.0524 14.0197C40.7933 15.1059 40.5631 16.0861 40.3614 16.9603C40.1886 17.8081 40.0448 18.5499 39.9295 19.1857C39.8431 19.795 39.7999 20.3514 39.7999 20.8547C39.7999 21.7025 39.9871 22.325 40.3614 22.7224C40.7646 23.0933 41.3837 23.3317 42.2185 23.4376C43.0536 23.5171 44.1766 23.5569 45.5873 23.5569ZM63.5988 27.6896L69.9477 0.349804H76.1238L70.8979 23.0005H83.8116L82.6887 27.6896H63.5988ZM101.182 28.0075C98.1589 28.0075 95.7979 27.8353 94.099 27.4909C92.4001 27.12 91.1908 26.4842 90.4711 25.5835C89.78 24.6562 89.4345 23.3846 89.4345 21.7686C89.4345 20.7885 89.5496 19.6493 89.78 18.3512C90.0392 17.0531 90.356 15.5562 90.7302 13.8608C91.2485 11.5824 91.7236 9.63526 92.1555 8.01925C92.6161 6.40324 93.1633 5.07863 93.7967 4.04544C94.4301 2.98577 95.2507 2.1645 96.2585 1.58168C97.2951 0.998856 98.6195 0.601477 100.232 0.38954C101.844 0.151112 103.845 0.0318976 106.235 0.0318976C109.259 0.0318976 111.605 0.217343 113.275 0.58823C114.974 0.932628 116.169 1.56844 116.86 2.49566C117.58 3.39638 117.94 4.668 117.94 6.31052C117.94 7.31722 117.825 8.45638 117.594 9.728C117.393 10.9996 117.09 12.4832 116.687 14.1787C116.14 16.4835 115.622 18.4439 115.132 20.0599C114.643 21.6759 114.081 23.0005 113.448 24.0337C112.815 25.0669 111.994 25.875 110.986 26.4577C109.978 27.0405 108.683 27.4512 107.099 27.6896C105.544 27.9016 103.572 28.0075 101.182 28.0075ZM101.484 23.5569C102.78 23.5569 103.845 23.5171 104.681 23.4376C105.516 23.3582 106.207 23.1728 106.754 22.8813C107.33 22.5898 107.805 22.0999 108.179 21.411C108.553 20.7221 108.913 19.7817 109.259 18.5896C109.604 17.3975 109.993 15.8742 110.425 14.0197C110.828 12.4302 111.116 11.0791 111.289 9.96642C111.49 8.85376 111.591 7.93978 111.591 7.22449C111.591 6.35025 111.404 5.7277 111.029 5.3568C110.655 4.95942 110.051 4.72099 109.215 4.64152C108.38 4.53556 107.272 4.48256 105.89 4.48256C104.594 4.48256 103.514 4.5223 102.651 4.60178C101.816 4.68126 101.11 4.86669 100.534 5.15811C99.9873 5.44953 99.5265 5.93962 99.1522 6.62842C98.778 7.31722 98.418 8.25768 98.0725 9.44983C97.727 10.642 97.3527 12.1653 96.9495 14.0197C96.6904 15.1059 96.46 16.0861 96.2585 16.9603C96.0857 17.8081 95.9417 18.5499 95.8266 19.1857C95.7402 19.795 95.697 20.3514 95.697 20.8547C95.697 21.7025 95.8843 22.325 96.2585 22.7224C96.6617 23.0933 97.2806 23.3317 98.1157 23.4376C98.9507 23.5171 100.074 23.5569 101.484 23.5569Z" fill="white"/>
</svg>
