<svg width="25" height="26" viewBox="0 0 25 26" fill="none" xmlns="http://www.w3.org/2000/svg">
<path fill-rule="evenodd" clip-rule="evenodd" d="M12.9266 11.926C11.4355 13.2982 9.98009 14.597 9.98009 14.597C9.77878 14.7764 9.76161 15.085 9.94103 15.2863C10.1204 15.4872 10.429 15.5048 10.6303 15.3254C10.6303 15.3254 14.4431 11.9221 16.0711 10.2941C16.3196 10.046 16.3943 9.8559 16.4076 9.77693C16.4415 9.57605 16.3711 9.43441 16.2698 9.3314C16.1955 9.25543 16.0852 9.18332 15.9161 9.17602C15.8333 9.17259 15.6492 9.20478 15.4011 9.32153C13.9821 9.98896 8.33962 13.748 8.33962 13.748C8.11514 13.8974 8.05463 14.2008 8.20399 14.4249C8.35379 14.6494 8.65724 14.7099 8.88129 14.5605C8.88129 14.5605 10.9814 13.1596 12.9266 11.926Z" fill="white"/>
<path fill-rule="evenodd" clip-rule="evenodd" d="M12.5 0.731445C5.60086 0.731445 0 6.3323 0 13.2314C0 20.1306 5.60086 25.7314 12.5 25.7314C19.3991 25.7314 25 20.1306 25 13.2314C25 6.3323 19.3991 0.731445 12.5 0.731445ZM12.5 1.79982C18.8094 1.79982 23.9316 6.92204 23.9316 13.2314C23.9316 19.5408 18.8094 24.6631 12.5 24.6631C6.1906 24.6631 1.06838 19.5408 1.06838 13.2314C1.06838 6.92204 6.1906 1.79982 12.5 1.79982Z" fill="white"/>
<path fill-rule="evenodd" clip-rule="evenodd" d="M8.21856 14.5405L9.26326 17.939C9.26712 17.9515 9.27142 17.9639 9.27614 17.9759C9.38731 18.2549 9.4989 18.4172 9.57873 18.494C9.72295 18.6331 9.87103 18.6653 9.99379 18.6618C10.1663 18.6567 10.4445 18.5537 10.5548 18.1446C10.5625 18.1146 10.5681 18.0841 10.5702 18.0532L10.7282 15.8779L14.8551 18.9133C15.2791 19.2353 15.6603 19.3035 15.9491 19.2155C16.247 19.1245 16.5354 18.8515 16.6719 18.2704C16.6728 18.2669 16.6737 18.2635 16.6741 18.2601L18.7111 8.66154C18.8326 8.15035 18.7644 7.76835 18.5983 7.54516C18.4055 7.28548 18.0411 7.10907 17.4213 7.27647C17.4046 7.28076 17.3879 7.28634 17.372 7.29277L5.4072 11.933C5.38874 11.9403 5.37071 11.9489 5.35311 11.9579C4.78612 12.2622 4.65994 12.6103 4.65822 12.8357C4.65607 13.1391 4.86896 13.4327 5.23036 13.5778C5.24109 13.5821 5.25182 13.5864 5.26298 13.5898L8.21856 14.5405ZM17.793 8.19713C17.7883 8.26666 17.7789 8.36109 17.76 8.4405C17.7587 8.44479 17.7579 8.44908 17.757 8.45337L15.7204 18.0506C15.7032 18.1214 15.6693 18.2026 15.6465 18.2532C15.5925 18.2266 15.5062 18.1815 15.444 18.1339C15.4414 18.1322 15.4392 18.1305 15.4367 18.1287L10.5943 14.5675C10.4513 14.4624 10.262 14.4431 10.1007 14.5173C9.93928 14.592 9.83111 14.7482 9.81823 14.9255L9.73025 16.1346L9.07699 14.0104C9.0302 13.858 8.91174 13.7379 8.7598 13.6889L5.92955 12.7781L17.6973 8.21387C17.7291 8.20657 17.7626 8.20099 17.793 8.19713Z" fill="white"/>
</svg>
