<svg width="25" height="26" viewBox="0 0 25 26" fill="none" xmlns="http://www.w3.org/2000/svg">
<path d="M24.0177 8.36638C23.3882 6.87781 22.4871 5.54099 21.3394 4.39314C20.1916 3.24526 18.8549 2.34397 17.3664 1.71428C15.825 1.06221 14.188 0.731543 12.5 0.731445C10.8129 0.731445 9.17589 1.06201 7.63454 1.71394C6.14604 2.34351 4.80932 3.24468 3.66152 4.39241C2.51372 5.54014 1.61247 6.87681 0.982812 8.36526C0.330761 9.90659 9.76778e-05 11.5436 2.16357e-08 13.2307C-9.76345e-05 14.9179 0.330395 16.5551 0.982275 18.0965C1.61179 19.5851 2.51294 20.9219 3.66067 22.0698C4.80839 23.2177 6.14509 24.1189 7.63361 24.7486C9.17502 25.4007 10.8121 25.7314 12.4999 25.7315H12.5001C14.1872 25.7315 15.8242 25.4009 17.3655 24.749C18.854 24.1194 20.1907 23.2182 21.3385 22.0705C22.4863 20.9228 23.3876 19.5862 24.0172 18.0977C24.6693 16.5563 24.9999 14.9193 25 13.2322C25.0001 11.5449 24.6696 9.90786 24.0177 8.36638ZM12.5001 24.5676H12.4994C9.47138 24.5674 6.62468 23.3881 4.48366 21.2468C2.3427 19.1056 1.1637 16.2588 1.16387 13.2308C1.16423 6.9804 6.2496 1.89534 12.5007 1.89534C15.5286 1.89551 18.3753 3.07483 20.5163 5.21606C22.6573 7.35732 23.8363 10.2041 23.8361 13.2321C23.8357 19.4825 18.7504 24.5676 12.5001 24.5676Z" fill="white"/>
<path d="M2.27854 10.1051C2.49794 10.5958 2.76836 11.0689 3.04747 11.5363C3.7107 12.6466 4.39369 13.7256 5.30942 14.7015C6.23483 15.6877 7.32741 16.6435 8.61445 17.2815C8.97241 17.4589 9.34871 17.6086 9.74068 17.7224C11.253 18.1614 12.9118 18.1196 13.424 17.8269C13.9363 17.5343 13.3265 15.6114 13.7899 15.3814C14.2534 15.1515 15.0828 15.6532 15.6926 16.113C16.3024 16.5728 16.7659 16.9699 17.1074 17.2835C17.3213 17.4798 17.4718 17.7141 17.7506 17.8542C18.2118 18.0858 18.8263 18.0601 19.3407 18.0613C19.6275 18.062 19.9144 18.0629 20.2012 18.0598C20.395 18.0577 20.5889 18.0631 20.7826 18.0551C21.1009 18.0418 21.5171 17.9342 21.4932 17.593C21.4876 17.5123 21.4667 17.4158 21.4293 17.3414C21.3489 17.1813 21.2356 17.0153 21.1139 16.8759C20.4797 16.1496 20.059 15.7786 19.7419 15.4859C19.4247 15.1933 18.1197 14.1378 18.0343 13.9288C17.949 13.7198 17.9215 13.627 18.1639 13.3448C18.4063 13.0626 18.9369 12.3507 19.3516 11.8386C19.6117 11.5175 19.8479 11.1817 20.0813 10.846C20.3566 10.4502 20.6154 10.0449 20.836 9.62459C20.9346 9.43665 21.0241 9.26543 20.9631 9.05484C20.9221 8.91375 20.8295 8.7898 20.6571 8.75498C20.5629 8.73599 20.4602 8.73406 20.3639 8.73406C20.0041 8.73406 19.0649 8.73406 19.0649 8.73406C18.8952 8.73406 18.7254 8.73193 18.5556 8.7322C18.3815 8.73247 18.206 8.7313 18.0325 8.74404C17.7856 8.76216 17.6342 8.92532 17.51 9.08982C17.3581 9.29111 17.2198 9.50054 17.0724 9.70437C16.9716 9.84365 16.873 9.98403 16.7761 10.1253C16.6248 10.346 16.4689 10.5644 16.313 10.7827C16.2483 10.8733 16.1833 10.9638 16.1195 11.0549C15.9366 11.3161 14.351 13.1032 14.0339 13.1763C13.7168 13.2495 13.607 13.2286 13.607 12.6747C13.607 12.1208 13.607 8.97517 13.607 8.97517C13.607 8.97517 13.5827 8.73262 13.3144 8.73262C13.046 8.73262 11.8014 8.73262 11.8014 8.73262H9.23454C9.23454 8.73262 8.63084 8.73477 8.84427 9.19985C9.05771 9.66492 9.68891 9.80601 9.68891 10.582C9.68891 11.3579 9.68891 13.6231 9.68891 13.6231C9.68891 13.6231 9.58221 14.305 8.89308 13.7407C8.35004 13.2959 7.90262 12.7702 7.50729 12.225C7.09625 11.6582 6.76511 11.0694 6.47015 10.4525C6.38579 10.2761 6.30225 10.0993 6.2156 9.92371C6.12516 9.74038 6.03556 9.55674 5.94882 9.37212C5.8481 9.15767 5.74034 8.87737 5.46875 8.77864C5.33221 8.72901 5.1812 8.73145 5.03566 8.73147C4.49593 8.73159 3.95622 8.73289 3.41651 8.73201C3.25815 8.73176 3.09979 8.73162 2.94142 8.73196C2.56752 8.73272 2.10246 8.72327 2.01376 9.12351C1.96265 9.35405 2.06425 9.60015 2.1493 9.81607C2.18785 9.91423 2.23541 10.0086 2.27854 10.1051Z" fill="white"/>
</svg>
