<svg width="239" height="70" viewBox="0 0 239 70" fill="none" xmlns="http://www.w3.org/2000/svg">
<g id="&#208;&#155;&#208;&#190;&#208;&#179;&#208;&#190;">
<path id="Vector" d="M234.92 47.2146C234.341 49.8031 234.148 50.1482 233.231 50.1482C232.024 50.1482 231.59 52.6073 232.796 52.8662C233.569 53.0388 233.569 53.2545 232.7 56.6627C231.542 61.3652 231.542 61.3652 233.183 61.3652C234.486 61.3652 234.63 61.1927 235.113 59.2081C235.402 58.0001 235.885 56.0587 236.175 54.8939C236.561 53.2976 236.898 52.7368 237.574 52.7368C238.057 52.7368 238.539 52.3054 238.732 51.7445C239.167 50.3208 239.118 50.1482 238.25 50.1482C237.622 50.1482 237.526 49.8031 237.815 47.9911L238.153 45.834H236.705C235.451 45.834 235.209 46.0066 234.92 47.2146Z" fill="#9ACD32"/>
<path id="Vector_2" d="M206.447 50.1047C204.758 50.7519 203.696 52.1755 203.02 54.7641C202.104 58.1723 202.152 60.2863 203.165 60.9766C203.696 61.408 205.24 61.5806 208.039 61.5806C211.948 61.5806 212.141 61.5374 213.444 60.2C214.94 58.69 216.002 55.1092 215.761 52.4344C215.664 51.2264 215.326 50.6656 214.409 50.2773C213.058 49.6733 207.943 49.587 206.447 50.1047ZM212.431 52.6933C213.01 53.0384 213.01 53.513 212.527 55.6269C212.238 57.0075 211.61 58.388 211.176 58.6469C210.066 59.3803 206.447 59.3372 205.771 58.6037C205.047 57.8272 206.013 53.5992 207.074 52.8227C207.943 52.2187 211.417 52.1324 212.431 52.6933Z" fill="#9ACD32"/>
<path id="Vector_3" d="M189.123 50.8811C188.978 51.3126 188.544 53.2108 188.109 55.1091C187.675 57.0073 186.903 60.243 186.372 62.3138C185.889 64.3847 185.455 66.1966 185.455 66.3692C185.455 66.4986 186.064 66.4555 186.999 66.4555C187.787 66.4555 187.787 66.4555 188.413 66.4555C188.629 66.129 188.77 65.066 189.074 63.9532L189.557 61.5804L193.514 61.3647C198.533 61.1059 199.547 60.3293 200.608 56.1445C201.573 52.3911 201.573 52.046 200.415 51.0106C199.595 50.2771 198.823 50.1477 194.431 50.1477C190.04 50.1477 189.364 50.234 189.123 50.8811ZM197.761 53.2108C198.292 53.9011 197.52 57.3956 196.748 58.129C195.975 58.8193 190.281 59.0782 190.281 58.431C190.281 58.2585 190.474 57.4388 190.715 56.6191C190.957 55.7994 191.294 54.5914 191.439 53.9011C191.729 52.7794 191.873 52.7363 194.624 52.7363C196.168 52.7363 197.616 52.952 197.761 53.2108Z" fill="#9ACD32"/>
<path id="Vector_4" d="M218.753 50.3208C218.753 50.4071 218.222 52.8231 217.546 55.7567C216.871 58.6904 216.34 61.1064 216.34 61.1927C216.34 61.2789 216.967 61.3652 217.788 61.3652C218.898 61.3652 219.284 61.1495 219.477 60.373C219.863 58.9061 221.166 53.1251 221.166 52.9093C221.166 52.8231 222.469 52.7368 224.061 52.7368C226.233 52.7368 227.053 52.9093 227.246 53.3839C227.439 53.7722 228.163 54.031 229.177 54.031C230.624 54.031 230.817 53.9016 230.817 52.9525C230.817 52.3485 230.383 51.4857 229.852 51.0111C229.032 50.2777 228.26 50.1482 223.82 50.1482C221.021 50.1482 218.753 50.2345 218.753 50.3208Z" fill="#9ACD32"/>
<g id="Vector_5" filter="url(#filter0_d_566_1815)">
<path d="M175.955 61.5528C176.733 61.574 177.463 61.5528 178.145 61.5528H181.561C182.276 61.5528 182.719 61.2147 183.274 61.014C183.83 60.8132 183.763 60.5806 184.16 60.1579C184.572 59.7246 184.611 59.1381 185.04 58.3984C185.103 58.2187 185.104 57.9809 185.136 57.8119C185.183 57.6428 185.215 57.4895 185.231 57.3522C185.247 57.2042 185.255 57.0668 185.255 56.94C185.255 56.4222 185.12 56.0364 184.85 55.7828C184.58 55.5292 184.372 55.2403 183.989 55.0819C183.606 54.9235 183.142 54.661 182.597 54.5535H179.758H177.027C176.439 54.5007 176.539 54.4988 176.3 54.4354C176.078 54.3614 175.967 54.2188 175.967 54.0074C175.967 53.8489 175.971 53.9209 176.003 53.7624C176.051 53.6039 176.114 53.4453 176.193 53.2868C176.273 53.1283 176.384 52.9856 176.527 52.8588C176.669 52.732 176.836 52.6316 177.027 52.5576C177.217 52.4942 177.439 52.4414 177.693 52.3991C177.947 52.3568 178.153 52.3271 179.645 52.3271H180.931H182.597C183.184 52.3376 183.755 52.2795 184.311 52.3112C184.882 52.3429 186.714 52.2848 187.158 52.3271L187.943 50.2505H184.787H182.764H180.669C179.732 50.2505 177.733 50.2822 176.955 50.2505C176.193 50.3139 175.519 50.5728 174.932 50.7736C174.517 51.1694 174.471 51.2035 174.075 51.6051C173.678 51.9961 173.369 52.5192 173.146 53.1744C173.067 53.428 173.004 53.6764 172.956 53.9194C172.908 54.1519 172.884 54.3633 172.884 54.5535C172.884 55.0925 173.059 55.5205 173.408 55.8375C173.757 56.144 174.408 56.53 175.36 56.6146L178.383 56.6867C179.943 56.6867 181.08 56.8752 181.366 56.8752C181.651 56.8752 182.045 57.0687 182.156 57.1532C182.268 57.2378 182.323 57.3593 182.323 57.5178C182.323 57.613 182.307 57.7345 182.276 57.8824C182.26 58.0198 182.22 58.1678 182.156 58.3263C182.109 58.4743 182.037 58.6169 181.942 58.7543C181.847 58.8916 181.736 59.0185 181.609 59.1347C181.498 59.2404 181.363 59.325 181.204 59.3884C181.046 59.4518 181.046 59.4182 180.776 59.4605C180.506 59.4922 179.145 59.4393 178.764 59.4605C178.399 59.471 177.955 59.4605 177.431 59.4605C177.019 59.4605 176.519 59.4816 175.932 59.4605C175.36 59.4393 174.765 59.4605 174.146 59.4605H171.144L170.402 61.5528C170.99 61.5951 172.988 61.5211 173.718 61.5528C174.448 61.5951 175.194 61.5317 175.955 61.5528Z" fill="#9ACD32"/>
</g>
<g id="Vector_6" filter="url(#filter1_d_566_1815)">
<path d="M29.3983 39.0555C27.16 39.0555 24.7653 39.1295 22.2145 39.0555C19.7159 38.9816 17.2694 39.2031 14.8748 39.0555C12.4803 38.9447 5.92614 39.2031 4.00009 39.0555L6.35319 32.7391C8.22719 32.7391 14.1721 32.7391 16.2023 32.7391C18.2324 32.7391 20.1845 32.6652 22.0585 32.7391C23.9846 32.8131 25.6243 32.7391 26.9778 32.7391C28.6956 32.7391 30.1532 32.776 31.3505 32.7391C32.5998 32.6652 37.0636 32.8499 37.9485 32.7391C38.8335 32.5915 39.6143 32.4078 40.291 32.1862C40.8116 31.9646 41.2541 31.669 41.6184 31.2998C42.0349 30.8935 42.3993 30.4503 42.7116 29.9703C43.0239 29.4902 43.2582 28.9916 43.4144 28.4745C43.6226 27.9205 43.7527 27.4035 43.8048 26.9234C43.9089 26.4063 43.9609 25.9816 43.9609 25.6492C43.9609 25.0952 43.7787 24.6705 43.4144 24.3751C43.05 24.0796 42.3993 22.4926 41.4623 22.4926C40.5253 22.4926 35.4498 22.4926 30.3354 22.4926L20.4188 22.2406C17.2954 21.9452 15.1611 20.5961 14.0159 19.5251C12.8707 18.4171 12.2981 16.9214 12.2981 15.0379C12.2981 14.3731 12.3762 13.6344 12.5323 12.8219C12.6885 11.9725 12.8967 11.1046 13.157 10.2182C13.8858 7.92843 14.9009 6.1003 16.2023 4.73383C17.5036 3.33041 17.6515 3.21146 19.0133 1.82809C20.9393 1.12638 23.1517 0.221592 25.6504 0C28.2011 0.110795 34.7601 0 37.8314 0C40.0698 0 42.3602 0 44.7027 0C47.0452 0 49.2577 0 51.3398 0C53.4219 0 60.3401 0 61.6937 0L59.117 6.64771C57.6595 6.5 51.6522 6.70311 49.7782 6.59232C47.9561 6.48152 46.0821 6.68464 44.1562 6.64771C42.2301 6.64771 40.4081 6.64771 38.6903 6.64771C37.0766 6.64771 35.6711 6.64771 34.4738 6.64771C29.5806 6.64771 28.5915 6.55539 27.7586 6.70311C26.9257 6.85083 26.197 7.0355 25.5723 7.25709C24.9476 7.5156 24.401 7.86647 23.9325 8.30965C23.464 8.75284 23.0997 9.25141 22.8394 9.80539C22.5791 10.3594 22.3709 10.9134 22.2147 11.4673C22.1106 12.0213 22.0585 12.5753 22.0585 13.1293C22.0585 13.8679 22.4229 14.3665 23.1517 14.625C23.9325 14.8466 25.286 15.4936 27.212 15.6782H36.5235H45.8349C47.6235 16.054 47.4666 16.3308 48.7219 16.8844C49.9773 17.438 50.6614 18.4475 51.5465 19.3339C52.4316 20.2202 52.8739 21.5682 52.8739 23.3779C52.8739 23.8211 52.8478 24.3012 52.7959 24.8182C52.7439 25.2984 52.6397 25.8339 52.4835 26.4248C52.3793 27.0157 52.3778 27.8467 52.1697 28.4745C50.7612 31.0597 50.6357 33.1094 49.2821 34.6237C47.9808 36.1009 48.2 37.5059 46.378 38.2075C44.5561 38.9091 42.9458 39.0555 40.6033 39.0555C38.2608 39.0555 32.2614 39.0555 29.3983 39.0555ZM84.6463 39.0555C79.1805 39.0555 74.912 38.8154 71.8406 38.3353C68.7696 37.8182 66.5833 36.9318 65.2816 35.6762C64.0323 34.3835 63.4076 32.6108 63.4076 30.358C63.4076 28.9916 63.6161 27.4035 64.0323 25.5938C64.5008 23.7842 65.0735 21.6975 65.7501 19.3339C66.6871 16.1577 67.546 13.4432 68.3269 11.1904C69.16 8.93752 70.1489 7.09091 71.294 5.65056C72.4395 4.17329 73.9231 3.02839 75.7448 2.21589C77.6188 1.40339 80.0136 0.849409 82.9285 0.553953C85.8437 0.221565 89.4617 0.0553713 93.7821 0.0553713C99.2479 0.0553713 103.491 0.313897 106.51 0.830942C109.581 1.31106 111.741 2.19743 112.991 3.49004C114.292 4.74572 114.943 6.51846 114.943 8.80825C114.943 10.2117 114.735 11.7997 114.318 13.5725C113.954 15.3452 113.407 17.4134 112.678 19.777C111.689 22.9901 110.752 25.7231 109.867 27.9759C108.983 30.2287 107.968 32.0754 106.822 33.5157C105.677 34.9561 104.193 36.0826 102.371 36.895C100.55 37.7074 98.2071 38.2799 95.3438 38.6123C92.5328 38.9079 88.9671 39.0555 84.6463 39.0555ZM85.1929 32.8509C87.5354 32.8509 89.4617 32.7955 90.9711 32.6847C92.4808 32.574 93.7302 32.3155 94.7191 31.9092C95.7603 31.5028 96.6192 30.8198 97.2958 29.8595C97.9728 28.8991 98.6233 27.5881 99.2479 25.9262C99.8726 24.2643 100.575 22.1407 101.356 19.5554C102.085 17.3395 102.606 15.456 102.918 13.9049C103.282 12.3537 103.464 11.0796 103.464 10.0824C103.464 8.86364 103.126 7.99575 102.449 7.4787C101.773 6.92472 100.68 6.59233 99.1698 6.48153C97.6605 6.33382 95.6561 6.25994 93.1574 6.25994C90.8149 6.25994 88.8628 6.31534 87.3012 6.42613C85.7918 6.53693 84.5163 6.79544 83.4751 7.2017C82.4861 7.60797 81.6534 8.29119 80.9764 9.25143C80.2998 10.2117 79.649 11.5227 79.0243 13.1847C78.3996 14.8466 77.723 16.9702 76.9941 19.5554C76.5256 21.0697 76.1095 22.4361 75.7448 23.6549C75.4325 24.8367 75.1724 25.8708 74.964 26.7572C74.8078 27.6067 74.7297 28.3823 74.7297 29.0839C74.7297 30.2658 75.0682 31.1336 75.7448 31.6876C76.4737 32.2047 77.593 32.5371 79.1024 32.6847C80.6121 32.7955 82.6423 32.8509 85.1929 32.8509ZM117.756 38.6123L129.234 0.498544H140.4L130.952 32.0754H154.299L152.269 38.6123H117.756ZM185.704 39.0555C180.238 39.0555 175.969 38.8154 172.898 38.3353C169.827 37.8182 167.64 36.9318 166.339 35.6762C165.09 34.3835 164.465 32.6108 164.465 30.358C164.465 28.9917 164.673 27.4035 165.09 25.5938C165.558 23.7842 166.131 21.6975 166.807 19.3339C167.744 16.1577 168.603 13.4432 169.384 11.1903C170.217 8.9375 171.206 7.0909 172.351 5.65055C173.496 4.17328 174.98 3.02837 176.802 2.21588C178.676 1.40337 181.071 0.849396 183.986 0.55394C186.901 0.221552 190.519 0.0553589 194.839 0.0553589C200.305 0.0553589 204.548 0.313884 207.567 0.830929C210.638 1.31105 212.799 2.19741 214.048 3.49003C215.349 4.74571 216 6.51845 216 8.80824C216 10.2117 215.792 11.7997 215.375 13.5725C215.011 15.3452 214.465 17.4134 213.736 19.777C212.747 22.9901 211.81 25.7231 210.925 27.9759C210.04 30.2287 209.024 32.0754 207.879 33.5157C206.734 34.9561 205.251 36.0826 203.429 36.895C201.607 37.7074 199.264 38.2799 196.401 38.6123C193.59 38.9079 190.024 39.0555 185.704 39.0555ZM186.25 32.8509C188.593 32.8509 190.519 32.7955 192.028 32.6847C193.538 32.574 194.787 32.3155 195.776 31.9092C196.818 31.5028 197.677 30.8198 198.353 29.8595C199.03 28.8991 199.681 27.5881 200.305 25.9262C200.93 24.2643 201.633 22.1407 202.413 19.5554C203.142 17.3395 203.663 15.456 203.975 13.9048C204.339 12.3537 204.522 11.0795 204.522 10.0824C204.522 8.86363 204.183 7.99574 203.507 7.47869C202.83 6.92471 201.737 6.59232 200.227 6.48152C198.717 6.3338 196.713 6.25993 194.215 6.25993C191.872 6.25993 189.92 6.31533 188.358 6.42612C186.849 6.53692 185.574 6.79543 184.532 7.20169C183.543 7.60795 182.71 8.29118 182.034 9.25142C181.357 10.2117 180.706 11.5227 180.082 13.1847C179.457 14.8466 178.78 16.9702 178.051 19.5554C177.583 21.0697 177.166 22.4361 176.802 23.6549C176.49 24.8367 176.229 25.8708 176.021 26.7572C175.865 27.6067 175.787 28.3823 175.787 29.0839C175.787 30.2658 176.126 31.1336 176.802 31.6876C177.531 32.2047 178.65 32.5371 180.16 32.6847C181.669 32.7955 183.7 32.8509 186.25 32.8509Z" fill="white"/>
</g>
</g>
<defs>
<filter id="filter0_d_566_1815" x="166.402" y="50.2505" width="25.541" height="19.3174" filterUnits="userSpaceOnUse" color-interpolation-filters="sRGB">
<feFlood flood-opacity="0" result="BackgroundImageFix"/>
<feColorMatrix in="SourceAlpha" type="matrix" values="0 0 0 0 0 0 0 0 0 0 0 0 0 0 0 0 0 0 127 0" result="hardAlpha"/>
<feOffset dy="4"/>
<feGaussianBlur stdDeviation="2"/>
<feComposite in2="hardAlpha" operator="out"/>
<feColorMatrix type="matrix" values="0 0 0 0 0 0 0 0 0 0 0 0 0 0 0 0 0 0 0.25 0"/>
<feBlend mode="normal" in2="BackgroundImageFix" result="effect1_dropShadow_566_1815"/>
<feBlend mode="normal" in="SourceGraphic" in2="effect1_dropShadow_566_1815" result="shape"/>
</filter>
<filter id="filter1_d_566_1815" x="0" y="0" width="220" height="47.1074" filterUnits="userSpaceOnUse" color-interpolation-filters="sRGB">
<feFlood flood-opacity="0" result="BackgroundImageFix"/>
<feColorMatrix in="SourceAlpha" type="matrix" values="0 0 0 0 0 0 0 0 0 0 0 0 0 0 0 0 0 0 127 0" result="hardAlpha"/>
<feOffset dy="4"/>
<feGaussianBlur stdDeviation="2"/>
<feComposite in2="hardAlpha" operator="out"/>
<feColorMatrix type="matrix" values="0 0 0 0 0 0 0 0 0 0 0 0 0 0 0 0 0 0 0.25 0"/>
<feBlend mode="normal" in2="BackgroundImageFix" result="effect1_dropShadow_566_1815"/>
<feBlend mode="normal" in="SourceGraphic" in2="effect1_dropShadow_566_1815" result="shape"/>
</filter>
</defs>
</svg>
