<svg width="12" height="22" viewBox="0 0 12 22" fill="none" xmlns="http://www.w3.org/2000/svg">
<g id="&#208;&#161;&#209;&#130;&#209;&#128;&#208;&#181;&#208;&#187;&#208;&#186;&#208;&#176; &#208;&#189;&#208;&#176;&#208;&#183;&#208;&#176;&#208;&#180;">
<path id="Vector" d="M11.5998 0.944736C11.2255 0.319854 10.6188 0.319854 10.2445 0.944736L5.56071 8.77272C4.81284 10.0227 4.81313 12.0481 5.56137 13.2973L10.2479 21.1224C10.6223 21.7472 11.229 21.7472 11.6033 21.1224C11.9775 20.4975 11.9775 19.4844 11.6033 18.8595L7.59201 12.162C7.21777 11.5372 7.21777 10.5242 7.59201 9.89918L11.5998 3.2076C11.9741 2.58273 11.9741 1.5696 11.5998 0.944736Z" fill="#590A73"/>
<path id="Vector_2" d="M6.59976 0.944736C6.22553 0.319854 5.61881 0.319854 5.24449 0.944736L0.560711 8.77272C-0.187162 10.0227 -0.186865 12.0481 0.561373 13.2973L5.24794 21.1224C5.62226 21.7472 6.22898 21.7472 6.60331 21.1224C6.97754 20.4975 6.97754 19.4844 6.60331 18.8595L2.59201 12.162C2.21777 11.5372 2.21777 10.5242 2.59201 9.89918L6.59976 3.2076C6.97409 2.58273 6.97409 1.5696 6.59976 0.944736Z" fill="#590A73"/>
</g>
</svg>
