<svg width="13" height="22" viewBox="0 0 13 22" fill="none" xmlns="http://www.w3.org/2000/svg">
<g id="&#208;&#161;&#209;&#130;&#209;&#128;&#208;&#181;&#208;&#187;&#208;&#186;&#208;&#176; &#208;&#178;&#208;&#191;&#208;&#181;&#209;&#128;&#208;&#181;&#208;&#180;">
<path id="Vector" d="M1.19934 21.1373C1.57451 21.7617 2.18123 21.7608 2.55461 21.1355L7.22654 13.3013C7.97252 12.0503 7.96916 10.0249 7.21904 8.77671L2.52064 0.957863C2.14537 0.333524 1.53865 0.334329 1.16527 0.959661C0.791985 1.58499 0.793518 2.59817 1.16869 3.2225L5.19012 9.91466C5.56531 10.539 5.56684 11.552 5.19354 12.1775L1.19592 18.8744C0.822537 19.4998 0.824069 20.5129 1.19934 21.1373Z" fill="#590A73"/>
<path id="Vector_2" d="M6.19934 21.1309C6.57451 21.7553 7.18123 21.7545 7.55461 21.1291L12.2265 13.2949C12.9725 12.0439 12.9692 10.0186 12.219 8.77036L7.52064 0.951515C7.14537 0.327176 6.53865 0.327982 6.16527 0.953314C5.79199 1.57864 5.79352 2.59182 6.16869 3.21616L10.1901 9.90832C10.5653 10.5327 10.5668 11.5457 10.1935 12.1712L6.19592 18.8681C5.82254 19.4934 5.82407 20.5065 6.19934 21.1309Z" fill="#590A73"/>
</g>
</svg>
